<?xml version="1.0" standalone="no"?><!-- Generator: Gravit.io --><svg xmlns="http://www.w3.org/2000/svg" xmlns:xlink="http://www.w3.org/1999/xlink" style="isolation:isolate" viewBox="0 0 240 290" width="240" height="290"><defs><clipPath id="_clipPath_9w6qIZ2RwLmpOolhdTJW3qDEP51ATn7f"><rect width="240" height="290"/></clipPath></defs><g clip-path="url(#_clipPath_9w6qIZ2RwLmpOolhdTJW3qDEP51ATn7f)"><path d=" M 36 0 L 204 0 C 223.869 0 240 16.131 240 36 L 240 110 C 240 209.345 186.23 290 120 290 L 120 290 C 53.77 290 0 209.345 0 110 L 0 36 C 0 16.131 16.131 0 36 0 Z " fill="rgb(9,2,47)"/><path d=" M 36 10 L 204 10 C 210.89 10 217.51 12.74 222.38 17.62 C 227.26 22.49 230 29.11 230 36 L 230 110 C 230 110 230 110 230 110.01 C 230.01 121.68 229.22 133.34 227.65 144.91 C 226.17 155.86 223.92 166.7 220.94 177.33 C 218.14 187.31 214.61 197.07 210.37 206.52 C 206.45 215.29 201.81 223.72 196.51 231.72 C 194.01 235.47 191.35 239.1 188.53 242.6 C 185.83 245.95 182.96 249.16 179.95 252.23 C 177.07 255.15 174.03 257.92 170.85 260.52 C 167.81 263 164.63 265.3 161.32 267.41 C 158.14 269.43 154.84 271.25 151.43 272.85 C 148.12 274.39 144.71 275.71 141.22 276.78 C 134.35 278.91 127.2 279.99 120 280 C 112.8 279.99 105.65 278.91 98.78 276.78 C 95.29 275.71 91.88 274.39 88.57 272.85 C 85.16 271.25 81.86 269.43 78.68 267.41 C 75.37 265.3 72.19 263 69.15 260.52 C 65.97 257.92 62.93 255.15 60.05 252.23 C 57.04 249.16 54.17 245.95 51.47 242.6 C 48.65 239.1 45.99 235.47 43.49 231.72 C 38.19 223.72 33.55 215.29 29.63 206.52 C 25.39 197.07 21.86 187.31 19.06 177.33 C 16.08 166.7 13.83 155.86 12.35 144.91 C 10.78 133.34 9.99 121.68 10 110.01 C 10 110 10 110 10 110 L 10 36 C 10 29.11 12.74 22.49 17.62 17.62 C 22.49 12.74 29.11 10 36 10 Z " fill="rgb(84,148,244)"/><clipPath id="_clipPath_ps5JsZZ9KjGvB7y7PGwSKCazCjNzM4o6"><path d=" M 36 10 L 204 10 C 210.89 10 217.51 12.74 222.38 17.62 C 227.26 22.49 230 29.11 230 36 L 230 110 C 230 110 230 110 230 110.01 C 230.01 121.68 229.22 133.34 227.65 144.91 C 226.17 155.86 223.92 166.7 220.94 177.33 C 218.14 187.31 214.61 197.07 210.37 206.52 C 206.45 215.29 201.81 223.72 196.51 231.72 C 194.01 235.47 191.35 239.1 188.53 242.6 C 185.83 245.95 182.96 249.16 179.95 252.23 C 177.07 255.15 174.03 257.92 170.85 260.52 C 167.81 263 164.63 265.3 161.32 267.41 C 158.14 269.43 154.84 271.25 151.43 272.85 C 148.12 274.39 144.71 275.71 141.22 276.78 C 134.35 278.91 127.2 279.99 120 280 C 112.8 279.99 105.65 278.91 98.78 276.78 C 95.29 275.71 91.88 274.39 88.57 272.85 C 85.16 271.25 81.86 269.43 78.68 267.41 C 75.37 265.3 72.19 263 69.15 260.52 C 65.97 257.92 62.93 255.15 60.05 252.23 C 57.04 249.16 54.17 245.95 51.47 242.6 C 48.65 239.1 45.99 235.47 43.49 231.72 C 38.19 223.72 33.55 215.29 29.63 206.52 C 25.39 197.07 21.86 187.31 19.06 177.33 C 16.08 166.7 13.83 155.86 12.35 144.91 C 10.78 133.34 9.99 121.68 10 110.01 C 10 110 10 110 10 110 L 10 36 C 10 29.11 12.74 22.49 17.62 17.62 C 22.49 12.74 29.11 10 36 10 Z " fill="rgb(84,148,244)"/></clipPath><g clip-path="url(#_clipPath_ps5JsZZ9KjGvB7y7PGwSKCazCjNzM4o6)"><rect x="-12.5" y="10" width="265" height="50" transform="matrix(1,0,0,1,0,0)" fill="rgb(120,158,217)"/><rect x="-12.5" y="60" width="265" height="50" transform="matrix(1,0,0,1,0,0)" fill="rgb(84,148,244)"/><rect x="-12.5" y="110" width="265" height="50" transform="matrix(1,0,0,1,0,0)" fill="rgb(36,118,242)"/><rect x="-12.5" y="160" width="265" height="50" transform="matrix(1,0,0,1,0,0)" fill="rgb(37,22,234)"/><rect x="-12.5" y="210" width="265" height="50" transform="matrix(1,0,0,1,0,0)" fill="rgb(36,7,208)"/><rect x="-12.5" y="260" width="265" height="50" transform="matrix(1,0,0,1,0,0)" fill="rgb(61,22,64)"/></g><path d=" M 36.207 196.207 C 36.207 242.485 73.723 280 120 280 L 120 280 C 166.277 280 203.793 242.485 203.793 196.207 C 203.793 149.655 180.517 112.414 196.134 79.828 C 196.134 79.828 171.207 84.483 157.241 121.724 C 157.241 121.724 110.69 75.172 130.139 10 C 130.139 10 82.759 28.62 87.714 89.138 C 91.963 141.031 82.759 149.655 82.759 149.655 C 82.759 107.759 50.003 89.138 50.003 89.138 C 59.483 140.345 36.207 154.31 36.207 196.207 Z " fill="rgb(255,180,70)"/><clipPath id="_clipPath_Dhg36uLewwtGW2idVMS3Su9TuFkA9l4c"><path d=" M 36.207 196.207 C 36.207 242.485 73.723 280 120 280 L 120 280 C 166.277 280 203.793 242.485 203.793 196.207 C 203.793 149.655 180.517 112.414 196.134 79.828 C 196.134 79.828 171.207 84.483 157.241 121.724 C 157.241 121.724 110.69 75.172 130.139 10 C 130.139 10 82.759 28.62 87.714 89.138 C 91.963 141.031 82.759 149.655 82.759 149.655 C 82.759 107.759 50.003 89.138 50.003 89.138 C 59.483 140.345 36.207 154.31 36.207 196.207 Z " fill="rgb(255,180,70)"/></clipPath><g clip-path="url(#_clipPath_Dhg36uLewwtGW2idVMS3Su9TuFkA9l4c)"><path d=" M 180.484 216.051 C 180.484 250.905 153.572 280.659 118.725 279.987 C 85.93 279.355 61.531 254.403 64.139 221.81 C 65.302 207.263 76.358 183.696 94.397 159.838 L 106.423 167.112 C 106.034 137.63 120 98.449 120 98.449 C 129.174 139.731 180.484 150.431 180.484 216.051 Z " fill="rgb(255,220,100)"/><path d=" M 96.724 186.897 C 92.069 214.828 82.759 224.997 82.759 242.759 C 82.759 261.38 99.433 280 120 280 L 120 280 C 140.716 280 157.298 263.074 157.241 242.358 C 157.085 186.719 124.655 158.966 124.655 158.966 C 129.311 186.897 115.345 200.862 115.345 200.862 C 109.528 192.137 96.724 186.897 96.724 186.897 Z " fill="rgb(255,255,255)"/></g></g></svg>